# xmcd
#
# Track frame offsets:
#	150
#	15926
#	29614
#	46865
#	62751
#	73615
#	89783
#	106461
#	123292
#	137598
#	152813
#	167145
#	181845
#
# Disc length: 2627 seconds
#
# Revision: 1
# Processed by: cddbd v1.5.2PL0 Copyright (c) Steve Scherf et al.
# Submitted via: audiograbber 1.83.01
#
DISCID=ab0a410d
DTITLE=Simona Martausova - Vyzliect si cloveka
DYEAR=2012
DGENRE=Pop
TTITLE0=Pamela
TTITLE1=Sama
TTITLE2=Je ine
TTITLE3=Korka chleba
TTITLE4=Laskonka
TTITLE5=Kone
TTITLE6=Labute
TTITLE7=Viem ze si tam
TTITLE8=Vojna
TTITLE9=Zodvihni ma
TTITLE10=Podobna
TTITLE11=Nadherny Svaty
TTITLE12=Plamen
EXTD=
EXTT0=
EXTT1=
EXTT2=
EXTT3=
EXTT4=
EXTT5=
EXTT6=
EXTT7=
EXTT8=
EXTT9=
EXTT10=
EXTT11=
EXTT12=
PLAYORDER=
